<?xml version="1.0" encoding="UTF-8" standalone="no"?>
<svg
   xmlns:dc="http://purl.org/dc/elements/1.1/"
   xmlns:cc="http://creativecommons.org/ns#"
   xmlns:rdf="http://www.w3.org/1999/02/22-rdf-syntax-ns#"
   xmlns:svg="http://www.w3.org/2000/svg"
   xmlns="http://www.w3.org/2000/svg"
   xmlns:sodipodi="http://sodipodi.sourceforge.net/DTD/sodipodi-0.dtd"
   xmlns:inkscape="http://www.inkscape.org/namespaces/inkscape"
   version="1.0"
   width="722.21722"
   height="599.62695"
   viewBox="0 0 7222.1722 5996.2695"
   preserveAspectRatio="xMidYMid meet"
   id="svg2"
   inkscape:version="0.92.4 (5da689c313, 2019-01-14)"
   sodipodi:docname="HeartBullet.svg">
  <metadata
     id="metadata18">
    <rdf:RDF>
      <cc:Work
         rdf:about="">
        <dc:format>image/svg+xml</dc:format>
        <dc:type
           rdf:resource="http://purl.org/dc/dcmitype/StillImage" />
        <dc:title></dc:title>
      </cc:Work>
    </rdf:RDF>
  </metadata>
  <defs
     id="defs16" />
  <sodipodi:namedview
     pagecolor="#ffffff"
     bordercolor="#666666"
     borderopacity="1"
     objecttolerance="10"
     gridtolerance="10"
     guidetolerance="10"
     inkscape:pageopacity="0"
     inkscape:pageshadow="2"
     inkscape:window-width="1440"
     inkscape:window-height="848"
     id="namedview14"
     showgrid="false"
     fit-margin-top="0"
     fit-margin-left="0"
     fit-margin-right="0"
     fit-margin-bottom="0"
     inkscape:zoom="0.52444444"
     inkscape:cx="341.62187"
     inkscape:cy="249.5565"
     inkscape:window-x="-8"
     inkscape:window-y="-8"
     inkscape:window-maximized="1"
     inkscape:current-layer="svg2" />
  <g
     id="layer101"
     style="fill:#FF0033;stroke:none"
     transform="translate(-1042.7597,-1614.5938)">
    <path
       d="m 6862.0625,1614.5938 c -97.1977,0.5067 -194.3907,2.237 -291.5594,4.6298 -59.4307,2.2457 -120.1332,2.5705 -177.1287,21.4421 -36.5689,11.6762 -73.4111,23.5194 -107.8051,40.6429 -19.9498,13.5668 -43.9432,18.5778 -66.8857,24.7217 -50.4267,16.6142 -98.1726,40.4306 -146.3991,62.301 -26.8875,11.2874 -53.7635,23.3687 -82.4095,29.3562 -40.476,1.2987 -80.5099,10.8461 -119.1977,22.737 -19.2537,5.9079 -36.9759,15.7417 -56.3572,21.3347 -20.866,7.6163 -42.6862,13.2412 -62.6013,22.9908 -15.089,11.995 -34.231,17.5848 -52.2813,23.3125 -13.8236,4.3296 -28.8759,8.2275 -39.8125,18.1563 -2.4884,2.841 -1.0574,7.7346 -5.25,9.375 -6.8312,4.1049 -16.0228,0.7464 -22.1562,6.75 -3.4203,2.1233 -3.9821,6.327 -4.875,9.8437 -7.1005,8.5047 -19.7501,3.6487 -28.6876,8.625 -7.5136,3.0117 -13.2216,9.1989 -16.1562,16.625 -13.4143,17.5371 -35.4391,24.3747 -54.2188,34.4687 -12.7836,7.09 -25.1963,15.3441 -35.0624,26.125 -8.2203,7.065 -18.7631,10.274 -29.4688,10.4376 -8.4754,1.008 -16.4666,8.0136 -15.9062,17.0312 -4.8605,12.3828 -17.9558,18.6379 -29.5828,23.2514 -41.3543,15.8179 -76.2555,43.9697 -111.6439,69.733 -18.3046,12.0747 -38.2594,22.2157 -59.4609,27.4844 -15.7741,5.8262 -30.5535,15.3492 -40.375,29.1874 -7.8266,8.1146 -18.8086,13.3976 -30.2187,13.1876 -11.0053,1.6113 -20.1604,9.5962 -24.4687,19.5937 -10.9415,14.8152 -28.3213,22.7455 -44.6364,30.1505 -33.0423,17.3152 -59.2291,45.098 -89.1697,66.7088 -12.22,8.3056 -25.7923,14.9879 -40.1002,19.0782 -28.3954,12.3019 -49.3291,36.1484 -73.5332,54.5807 -6.0066,4.5376 -12.2548,9.5232 -19.8418,10.4505 -25.4906,11.2612 -41.6157,36.1726 -65.7813,49.0626 -9.4339,1.6341 -15.9218,10.2463 -23.4083,15.7267 -39.4712,34.8337 -76.8006,72.3223 -116.1229,107.1795 -11.9704,9.4859 -23.0642,20.394 -36.75,27.125 -9.3101,2.3225 -15.4722,11.2534 -21.9342,17.8245 -12.4793,15.108 -25.2062,30.9569 -32.0346,49.488 -0.3688,5.4932 -2.5681,10.515 -6.75,14.2813 -10.4777,11.1773 -27.0957,16.9047 -33.5312,31.6874 -2.2359,10.5138 -9.8107,18.8815 -14.9229,28.1839 -21.9474,34.6062 -46.9865,67.3759 -71.9275,99.7783 -14.9609,20.614 -37.6378,34.2295 -51.1496,55.8191 -3.6924,5.336 -1.7029,12.5782 -6.4062,17.5313 -20.93,28.0694 -46.3931,52.701 -68.3288,80.0982 -28.8377,33.3882 -54.3092,69.2272 -83.2077,102.603 -12.8887,14.8266 -24.9764,30.6615 -38.5261,44.705 -5.8535,5.0161 -16.4328,8.6406 -21.7561,1.0922 -17.185,-20.2912 -28.4479,-45.095 -39.5239,-69.2252 -8.4242,-18.4296 -14.5923,-37.7211 -19.5012,-57.3358 -6.628,-19.3926 -17.9558,-36.7001 -30.6692,-52.5678 -18.0895,-26.0256 -32.2258,-54.4782 -45.3402,-83.2572 -7.9898,-15.9467 -16.1434,-32.1538 -28.7718,-44.8624 -3.7327,-4.3117 -6.2525,-9.4023 -7.2813,-14.9063 -16.4141,-29.442 -44.216,-51.5622 -58.3125,-82.3437 -1.1127,-5.9251 -2.9482,-11.808 -6.5,-16.7813 -16.0638,-26.0866 -39.831,-45.9137 -57.9111,-70.6122 -14.4875,-19.02 -27.3627,-39.0644 -43.1951,-57.0686 -60.998,-71.8653 -128.01,-138.4754 -196.5454,-203.1505 -47.9491,-45.7583 -100.2505,-87.0502 -147.0984,-133.6687 -5.0662,-6.4636 -10.3155,-13.3074 -18.5625,-15.875 -5.0044,-1.7788 -10.7026,-1.1752 -15.1563,-4.7187 -41.1536,-23.5565 -72.7439,-62.1056 -115.8437,-83.0626 -8.6392,-5.3896 -19.274,-2.338 -28.0625,-7.1874 -5.151,-2.3496 -6.4672,-8.5232 -11.25,-11.4688 -28.2424,-23.9776 -60.006,-43.9493 -91.9887,-62.7225 -18.7518,-11.2338 -39.7133,-17.7015 -58.8742,-28.416 -46.6248,-23.0935 -90.3844,-52.418 -138.3559,-72.5177 -8.1183,-1.9582 -16.227,-3.8068 -23.9567,-7.2587 -58.1004,-22.501 -112.7369,-53.7347 -171.8002,-73.8948 -45.0845,-14.2891 -91.5277,-24.3962 -135.9305,-40.6903 -40.8735,-15.6312 -82.927,-28.3157 -124.9682,-40.344 -54.1058,-14.0578 -110.6363,-12.6514 -166.1568,-13.8213 -105.4123,-0.6377 -204.1075,3.1053 -309.5085,3.0985 -73.5377,21.4929 -154.8205,36.5233 -226.8567,62.6682 -8.0515,3.5991 -17.5756,5.5276 -24.0098,11.7424 -5.4945,5.8684 -14.756,6.1506 -22.3719,7.0474 -16.9542,0.092 -32.4197,8.7118 -48.0031,14.515 -65.3213,28.6431 -128.5728,62.1077 -190.0623,98.3729 -22.7583,13.9524 -46.1748,27.7577 -64.9065,46.8147 -9.4094,7.6007 -18.6409,16.6652 -30.25,20.4062 -11.0451,2.8338 -19.2019,11.9478 -28.1401,18.555 -51.0843,44.5372 -97.9804,93.7358 -143.6473,143.7693 -21.7677,24.9542 -44.8107,49.3457 -62.1501,77.6132 -20.5077,40.094 -45.9445,77.7218 -67.1723,117.5017 -9.2448,18.7447 -19.7146,37.4231 -24.3902,57.9046 -2.7831,30.1033 -13.3308,58.5525 -22.8438,87.0624 -23.4783,77.0836 -41.518,155.815 -57.1533,234.8401 -10.873,54.2462 -15.6521,109.2806 -23.9568,163.9624 -5.8931,42.1088 -13.6769,83.9234 -16.0265,126.4368 -7.5943,111.6252 -7.5559,223.6414 -4.8622,335.4457 2.4366,74.4728 5.0464,149.2317 15.5926,223.0338 10.6653,61.6343 21.3667,123.2748 31.7552,184.95 13.3841,68.4146 33.0793,135.7513 61.4554,199.5115 7.5946,20.2664 14.8607,41.0236 15.2894,62.8197 3.04,23.8258 13.824,45.6132 24.9725,66.6474 22.4862,46.9046 44.3906,94.2778 62.9025,142.9776 2.0557,8.8751 4.7072,17.5296 8.7408,25.8004 31.5729,69.194 66.9006,136.7737 102.6364,203.9276 13.0165,23.3228 24.809,47.5262 40.2166,69.3033 1.9445,2.6436 6.3052,1.79 7.3437,5.5625 3.9978,7.4355 1.3838,16.4276 5.9313,23.8045 19.4378,44.3222 49.5786,82.8394 74.2957,124.4112 20.9581,33.0872 40.0921,67.0465 58.7341,101.4491 8.5729,14.1865 16.0822,29.3872 27.8514,41.1477 19.5811,25.919 34.1943,55.1077 53.4791,81.2447 22.6247,33.971 50.5762,64.4324 70.8959,99.7866 3.6519,11.309 11.2327,21.0126 17.5506,31.0366 39.8286,58.6366 81.125,116.3922 124.8286,172.1781 10.5754,13.2547 22.9439,24.9731 32.5583,38.9415 17.8325,23.0426 32.2919,49.3921 52.9375,70.0312 3.299,2.5214 7.2939,3.142 9.6875,6.875 18.6601,19.9293 31.7701,44.2913 49.7383,64.9506 27.1049,33.1261 57.1902,63.7426 85.5593,95.8832 73.4392,81.7322 151.2145,159.6196 228.1775,238.2554 105.185,106.3434 210.3241,212.8091 317.8438,316.787 114.61,108.1882 233.0023,212.3482 353.3374,314.1238 52.0415,44.2948 102.6466,90.1648 156.3095,132.3748 71.8822,57.0381 144.4066,113.447 219.4916,166.1692 18.0207,12.5433 37.6869,22.7159 54.7102,36.6283 33.1947,25.1155 63.1137,54.5325 95.9838,80.274 54.1723,42.5597 106.1323,87.5608 160.5529,129.9044 55.5607,43.6789 112.4056,86.0898 172.6362,123.1624 5.3884,3.646 11.3912,6.0607 17.472,8.2369 32.9834,19.9789 63.3758,43.8494 94.1909,66.9431 44.7659,33.3332 88.66,68.0391 134.2911,100.117 29.7094,19.8148 55.8972,44.173 84.7265,65.1615 56.8072,42.8971 115.1694,83.7616 172.6541,125.7708 39.9486,28.5648 79.1053,58.5302 120.8075,84.3208 19.4549,12.6503 37.2262,27.5224 55.4861,41.7494 14.8208,11.0903 35.1092,17.8798 53.0313,10.3124 24.3565,-9.1002 36.4756,-35.0788 59.9063,-45.4687 9.4627,-1.6707 16.917,-9.2471 24.8994,-14.2799 32.4476,-23.6229 60.1872,-53.4272 94.288,-74.7514 4.4195,-1.9023 9.5406,-2.1639 13.3126,-5.5 13.3816,-9.2659 23.9487,-21.7835 37.3018,-31.2586 56.3676,-44.9848 116.6209,-85.288 171.7669,-131.9202 28.8333,-22.207 59.6824,-41.9507 88.5875,-64.1962 82.1041,-61.314 163.6961,-123.4267 243.3489,-187.8428 8.0374,-6.1833 15.4684,-13.2404 21.8699,-20.8134 5.6403,-5.4782 12.7933,-9.4412 20.5624,-10.2188 19.2427,-9.2947 35.1079,-24.1953 51.2416,-37.9886 21.7743,-18.9561 43.2428,-38.6561 67.6022,-54.0426 28.9892,-18.3865 56.16,-39.9503 83.9525,-60.2717 73.5152,-55.364 145.8588,-112.3101 219.9338,-166.9423 49.1952,-36.4822 96.9297,-74.4395 145.8637,-111.2548 39.3525,-29.9319 79.7718,-58.619 115.7188,-92.625 4.758,-5.7222 8.9067,-12.4 16.4687,-14.875 5.4361,-1.8026 11.6,-1.4759 16.4449,-5.0955 30.5427,-17.4244 55.4226,-42.9765 83.3309,-64.1893 34.5295,-27.4946 70.953,-52.7304 106.4577,-79.2045 48.7058,-35.0509 96.7277,-71.4208 147.9716,-102.5811 13.7938,-8.4074 28.7086,-15.2736 44.758,-18.1988 7.2014,-2.6556 16.1165,-3.3943 21.4744,-9.2308 1.2296,-2.476 -2.531,-4.1391 -0.6562,-6.8124 6.936,-15.1927 20.5248,-26.0347 32.7185,-36.9743 20.7765,-17.8556 45.4783,-30.3036 67.0645,-47.2204 62.4258,-46.592 123.5091,-95.2618 181.9044,-146.8053 134.025,-124.5138 259.8365,-257.8615 376.0083,-399.22 24.3792,-29.9982 49.3759,-59.7647 75.8234,-87.5762 5.5484,-6.508 10.2756,-13.816 11.6683,-22.2038 17.2154,-28.7481 43.8781,-50.0507 63.4438,-77.1126 5.7793,-8.5533 13.6508,-16.6703 15.9,-26.9812 -0.2321,-6.5278 2.9416,-13.3516 9.3438,-15.625 17.7329,-14.8481 31.465,-33.9374 45.9611,-51.9037 12.1164,-16.6864 25.6897,-32.8326 34.1951,-51.7213 0.545,-5.7104 1.6334,-13.1101 8.0312,-15.2812 13.5624,-10.7101 23.819,-25.2961 35.1963,-38.398 16.1666,-20.6225 33.3668,-40.7823 46.2725,-63.6333 3.6677,-12.4264 13.0861,-22.3731 20.08,-33.1115 23.4288,-31.8899 49.3638,-62.093 72.2757,-94.4571 46.7756,-66.2292 91.0476,-134.4295 139.4887,-199.3604 5.3328,-6.2393 9.8154,-14.0013 16.6244,-18.5397 7.1732,-2.7511 10.5866,-10.9246 14.9687,-16.7188 10.9447,-17.3682 18.0446,-36.718 30,-53.625 20.0641,-32.1489 46.9023,-59.5498 66.625,-91.75 5.4734,-13.9496 15.1548,-26.2175 22.6631,-39.2561 31.9658,-49.8076 63.9266,-99.8974 98.5367,-147.7268 15.8186,-20.5905 27.1443,-44.2384 39.5189,-66.9859 9.7015,-18.5588 18.7874,-37.6256 30.9063,-54.75 12.9453,-15.0402 21.2031,-33.2527 30.906,-50.4147 46.9655,-89.173 86.6196,-182.0158 123.851,-275.5983 19.7013,-51.1131 30.461,-105.0774 43.7513,-158.131 18.9935,-78.5803 33.5189,-158.4622 38.2351,-239.284 6.6533,-108.1428 5.3521,-216.5625 5.4702,-324.8532 -0.8238,-93.155 -0.8004,-186.6845 -11.4323,-279.3125 -6.2426,-55.8765 -19.8538,-110.5529 -37.5722,-163.8077 -10.0654,-31.8918 -18.1656,-64.4055 -26.3341,-96.911 -18.7725,-61.0722 -45.7849,-119.2286 -72.7743,-177.0589 -40.1579,-83.364 -82.7238,-165.8113 -132.6494,-243.8084 -13.6088,-21.772 -29.7253,-41.4867 -45.4457,-61.7852 -6.3377,-9.4481 -14.6333,-18.5649 -17.4119,-29.7851 -12.388,-20.6087 -29.1466,-38.4868 -44.8124,-56.75 -15.3774,-17.3398 -31.8136,-34.1527 -44.1876,-53.9374 -2.699,-8.5337 -10.6497,-14.4539 -16.0312,-21.4063 -52.2284,-56.3828 -107.3274,-110.1309 -162.999,-163.1165 -19.5453,-18.3433 -39.1173,-36.8894 -61.1,-52.1566 -12.8628,-9.6184 -24.2361,-20.8037 -35.4948,-32.0706 -36.913,-29.6831 -81.8643,-46.7172 -121.25,-72.5313 -4.4234,-3.5422 -10.6754,-6.1659 -13.4687,-11.1563 -2.5582,-7.3525 -12.0697,-8.3225 -18.7813,-9.1874 -7.1461,-0.3242 -17.3324,0.1076 -21.0624,-7.2188 -0.28,-9.6021 -11.4647,-13.2188 -19.5938,-13 -27.0213,-6.2986 -50.557,-21.63 -75.185,-33.8031 -17.0624,-7.7461 -34.669,-16.3088 -53.69,-16.5719 -7.0683,-1.0239 -13.9845,-4.034 -18.1875,-10.0625 -12.3407,-8.6381 -28.1167,-10.0376 -42.4513,-13.4987 -35.6112,-6.3526 -71.4437,-11.8916 -107.3873,-15.801 -67.7477,-3.7906 -135.7039,-3.4462 -203.5364,-3.544 z"
       id="path5"
       inkscape:connector-curvature="0"
       sodipodi:nodetypes="ccccccccccccccccccccccccccccccccccccccccccccccccccccccccccccccccccccccccccccccccccccccccccccccccccccccccccccccccccccccccccccccccccccccccccccccccccccccccccccccccccccccccccccccccccccccccccccccccccccccccccccccccc" />
  </g>
</svg>
