<?xml version="1.0" encoding="UTF-8" standalone="no"?>
<!-- Created with Inkscape (http://www.inkscape.org/) -->

<svg
   xmlns:dc="http://purl.org/dc/elements/1.1/"
   xmlns:cc="http://creativecommons.org/ns#"
   xmlns:rdf="http://www.w3.org/1999/02/22-rdf-syntax-ns#"
   xmlns:svg="http://www.w3.org/2000/svg"
   xmlns="http://www.w3.org/2000/svg"
   xmlns:sodipodi="http://sodipodi.sourceforge.net/DTD/sodipodi-0.dtd"
   xmlns:inkscape="http://www.inkscape.org/namespaces/inkscape"
   width="54.30788mm"
   height="8.080307mm"
   viewBox="0 0 54.30788 8.080307"
   version="1.1"
   id="svg8"
   sodipodi:docname="TempLogo.svg"
   inkscape:version="0.92.4 (5da689c313, 2019-01-14)">
  <defs
     id="defs2" />
  <sodipodi:namedview
     id="base"
     pagecolor="#ffffff"
     bordercolor="#666666"
     borderopacity="1.0"
     inkscape:pageopacity="0.0"
     inkscape:pageshadow="2"
     inkscape:zoom="3.959798"
     inkscape:cx="103.87291"
     inkscape:cy="14.897456"
     inkscape:document-units="mm"
     inkscape:current-layer="text12-4"
     showgrid="false"
     inkscape:window-width="1440"
     inkscape:window-height="847"
     inkscape:window-x="-8"
     inkscape:window-y="-8"
     inkscape:window-maximized="1" />
  <metadata
     id="metadata5">
    <rdf:RDF>
      <cc:Work
         rdf:about="">
        <dc:format>image/svg+xml</dc:format>
        <dc:type
           rdf:resource="http://purl.org/dc/dcmitype/StillImage" />
        <dc:title></dc:title>
      </cc:Work>
    </rdf:RDF>
  </metadata>
  <g
     inkscape:label="Ebene 1"
     inkscape:groupmode="layer"
     id="layer1"
     transform="translate(-59.875079,-124.30646)">
    <g
       aria-label="noisevader  "
       style="font-style:normal;font-weight:normal;font-size:10.58333302px;line-height:125%;font-family:Sans;letter-spacing:0.39687499px;word-spacing:0px;fill:#000000;fill-opacity:1;stroke:none;stroke-width:0.26458332px;stroke-linecap:butt;stroke-linejoin:miter;stroke-opacity:1"
       id="text12-4">
      <path
         d="m 62.489163,126.84646 q 0.889,0 1.471083,0.58208 0.592667,0.58208 0.592667,1.47108 v 3.34434 h -0.941917 v -3.2385 q 0,-0.5715 -0.391583,-0.9525 -0.391584,-0.381 -0.98425,-0.381 -0.592667,0 -1.016,0.40216 -0.41275,0.40217 -0.41275,0.97367 v 3.19617 h -0.931334 v -5.29167 h 0.85725 l 0.04233,0.6985 q 0.66675,-0.80433 1.7145,-0.80433 z"
         style="font-style:normal;font-variant:normal;font-weight:normal;font-stretch:normal;font-family:orkney;-inkscape-font-specification:orkney;letter-spacing:0.13229169px;word-spacing:1.32291663px;fill:#5599ff;stroke-width:0.26458332px"
         id="path58"
         inkscape:connector-curvature="0" />
      <path
         d="m 73.446054,125.79871 q -0.179917,0.16933 -0.433917,0.16933 -0.254,0 -0.4445,-0.16933 -0.179916,-0.17992 -0.179916,-0.43392 0,-0.26458 0.179916,-0.4445 0.1905,-0.17992 0.4445,-0.17992 0.243417,0 0.423334,0.1905 0.1905,0.17992 0.1905,0.43392 0,0.254 -0.179917,0.43392 z m -0.910167,6.44525 v -5.29167 h 0.931334 v 5.29167 z"
         style="font-style:normal;font-variant:normal;font-weight:normal;font-stretch:normal;font-family:orkney;-inkscape-font-specification:orkney;letter-spacing:0.13229169px;word-spacing:1.32291663px;fill:#5599ff;stroke-width:0.26458332px"
         id="path62"
         inkscape:connector-curvature="0" />
      <path
         d="m 77.149559,132.34979 q -0.645583,0 -1.259417,-0.23283 -0.613833,-0.23284 -0.910166,-0.58209 l 0.486833,-0.635 q 0.1905,0.27517 0.66675,0.47625 0.486833,0.1905 0.963083,0.20109 0.497417,0.0212 0.8255,-0.1905 0.338667,-0.21167 0.338667,-0.5715 0,-0.15875 -0.08467,-0.28575 -0.07408,-0.127 -0.169333,-0.20109 -0.08467,-0.0847 -0.306917,-0.16933 -0.211666,-0.0952 -0.328083,-0.127 -0.116417,-0.0423 -0.402167,-0.127 -0.28575,-0.0953 -0.41275,-0.13758 -0.127,-0.0423 -0.381,-0.13759 -0.254,-0.10583 -0.381,-0.20108 -0.127,-0.10583 -0.275166,-0.254 -0.148167,-0.15875 -0.211667,-0.34925 -0.0635,-0.20108 -0.0635,-0.43392 0,-0.68791 0.5715,-1.11125 0.582083,-0.43391 1.375833,-0.43391 0.497417,0 0.994833,0.16933 0.508,0.15875 0.836084,0.42333 l -0.518584,0.635 q -0.455083,-0.42333 -1.153583,-0.47625 -0.4445,-0.0318 -0.804333,0.14817 -0.34925,0.17992 -0.34925,0.52917 0,0.1905 0.08467,0.33866 0.09525,0.14817 0.296333,0.254 0.211667,0.10584 0.370417,0.16934 0.169333,0.0529 0.486833,0.14816 0.338666,0.0952 0.508,0.15875 0.179916,0.0529 0.455083,0.1905 0.28575,0.127 0.423333,0.27517 0.148167,0.13758 0.264584,0.381 0.116416,0.24342 0.116416,0.55033 0,0.6985 -0.592666,1.15359 -0.582084,0.45508 -1.4605,0.45508 z"
         style="font-style:normal;font-variant:normal;font-weight:normal;font-stretch:normal;font-family:orkney;-inkscape-font-specification:orkney;letter-spacing:0.13229169px;word-spacing:1.32291663px;fill:#5599ff;stroke-width:0.26458332px"
         id="path64"
         inkscape:connector-curvature="0" />
      <path
         d="m 85.088216,129.59812 q 0,0.20109 -0.01058,0.30692 h -4.0005 q 0.07408,0.75142 0.497417,1.19592 0.423333,0.43391 1.143,0.43391 0.486833,0 0.814916,-0.1905 0.328084,-0.20108 0.645584,-0.68791 l 0.656166,0.45508 q -0.687916,1.23825 -2.148416,1.23825 -1.153583,0 -1.8415,-0.762 -0.677333,-0.77258 -0.677333,-1.97908 0,-1.2065 0.687916,-1.97909 0.687917,-0.78316 1.830917,-0.78316 1.11125,0 1.756833,0.762 0.645583,0.762 0.645583,1.98966 z m -2.381249,-1.94733 q -0.677334,0 -1.090084,0.41275 -0.41275,0.41275 -0.518583,1.11125 h 3.14325 q -0.07408,-0.70908 -0.47625,-1.11125 -0.391584,-0.41275 -1.058333,-0.41275 z"
         style="font-style:normal;font-variant:normal;font-weight:normal;font-stretch:normal;font-family:orkney;-inkscape-font-specification:orkney;letter-spacing:0.238125px;word-spacing:1.32291663px;fill:#3771c8;stroke-width:0.26458332px"
         id="path66"
         inkscape:connector-curvature="0" />
      <path
         d="m 89.971598,126.95229 h 0.994833 l -2.116666,5.29167 h -0.899584 l -2.116666,-5.29167 h 0.994833 l 1.576917,4.191 z"
         style="font-style:normal;font-variant:normal;font-weight:normal;font-stretch:normal;font-family:orkney;-inkscape-font-specification:orkney;letter-spacing:0.238125px;word-spacing:1.32291663px;fill:#3771c8;stroke-width:0.26458332px"
         id="path68"
         inkscape:connector-curvature="0" />
      <path
         d="m 94.040392,126.84646 q 0.963083,0 1.576917,0.51858 0.613833,0.508 0.613833,1.49225 v 3.38667 h -0.8255 l -0.05292,-0.75142 q -0.963083,0.85725 -1.957916,0.85725 -0.709084,0 -1.164167,-0.45508 -0.455083,-0.45509 -0.455083,-1.16417 0,-0.79375 0.635,-1.23825 0.645583,-0.4445 1.93675,-0.23283 l 0.963083,0.15875 v -0.62442 q 0,-0.5715 -0.370417,-0.85725 -0.359833,-0.29633 -0.941916,-0.29633 -0.931334,0 -1.418167,0.73025 l -0.645583,-0.5715 q 0.656166,-0.9525 2.106083,-0.9525 z m -1.312333,3.84175 q 0,0.37041 0.232833,0.60325 0.243417,0.22225 0.645583,0.22225 0.8255,0 1.703917,-0.80434 v -0.60325 l -0.867833,-0.14816 q -0.92075,-0.16934 -1.322917,0.0635 -0.391583,0.22225 -0.391583,0.66675 z"
         style="font-style:normal;font-variant:normal;font-weight:normal;font-stretch:normal;font-family:orkney;-inkscape-font-specification:orkney;letter-spacing:0.238125px;word-spacing:1.32291663px;fill:#3771c8;stroke-width:0.26458332px"
         id="path70"
         inkscape:connector-curvature="0" />
      <path
         d="m 101.81501,124.30646 h 0.91017 v 7.9375 h -0.83609 l -0.0423,-0.762 q -0.67733,0.86783 -1.76742,0.86783 -1.100663,0 -1.767413,-0.78317 -0.66675,-0.79375 -0.66675,-1.9685 0,-1.17475 0.66675,-1.95791 0.66675,-0.79375 1.767413,-0.79375 1.06892,0 1.73567,0.8255 z m -1.5875,7.20725 q 0.56092,0 0.99483,-0.37042 0.4445,-0.381 0.59267,-0.97367 v -1.143 q -0.14817,-0.59266 -0.59267,-0.97366 -0.43391,-0.381 -0.99483,-0.381 -0.762,0 -1.217083,0.55033 -0.4445,0.55033 -0.4445,1.37583 0,0.8255 0.4445,1.37584 0.455083,0.53975 1.217083,0.53975 z"
         style="font-style:normal;font-variant:normal;font-weight:normal;font-stretch:normal;font-family:orkney;-inkscape-font-specification:orkney;letter-spacing:0.238125px;word-spacing:1.32291663px;fill:#3771c8;stroke-width:0.26458332px"
         id="path72"
         inkscape:connector-curvature="0" />
      <path
         d="m 109.10908,129.59812 q 0,0.20109 -0.0106,0.30692 h -4.0005 q 0.0741,0.75142 0.49742,1.19592 0.42333,0.43391 1.143,0.43391 0.48683,0 0.81492,-0.1905 0.32808,-0.20108 0.64558,-0.68791 l 0.65617,0.45508 q -0.68792,1.23825 -2.14842,1.23825 -1.15358,0 -1.8415,-0.762 -0.67733,-0.77258 -0.67733,-1.97908 0,-1.2065 0.68791,-1.97909 0.68792,-0.78316 1.83092,-0.78316 1.11125,0 1.75683,0.762 0.64559,0.762 0.64559,1.98966 z m -2.38125,-1.94733 q -0.67734,0 -1.09009,0.41275 -0.41275,0.41275 -0.51858,1.11125 h 3.14325 q -0.0741,-0.70908 -0.47625,-1.11125 -0.39158,-0.41275 -1.05833,-0.41275 z"
         style="font-style:normal;font-variant:normal;font-weight:normal;font-stretch:normal;font-family:orkney;-inkscape-font-specification:orkney;letter-spacing:0.238125px;word-spacing:1.32291663px;fill:#3771c8;stroke-width:0.26458332px"
         id="path74"
         inkscape:connector-curvature="0" />
      <path
         d="m 113.02937,126.84646 q 0.73025,0 1.15359,0.3175 l -0.45509,0.67733 q -0.30691,-0.16933 -0.74083,-0.16933 -0.59267,0 -1.04775,0.46566 -0.4445,0.45509 -0.4445,1.143 v 2.96334 h -0.93133 v -5.29167 h 0.85725 l 0.0423,0.80433 q 0.635,-0.91016 1.56633,-0.91016 z"
         style="font-style:normal;font-variant:normal;font-weight:normal;font-stretch:normal;font-family:orkney;-inkscape-font-specification:orkney;letter-spacing:0.238125px;word-spacing:1.32291663px;fill:#3771c8;stroke-width:0.26458332px"
         id="path76"
         inkscape:connector-curvature="0" />
      <circle
         style="opacity:1;fill:none;fill-opacity:1;fill-rule:nonzero;stroke:#5599ff;stroke-width:0.90028226;stroke-linejoin:miter;stroke-miterlimit:4;stroke-dasharray:none;stroke-opacity:1"
         id="path79"
         cx="68.414505"
         cy="129.57677"
         r="2.359859" />
    </g>
  </g>
</svg>
